<svg xmlns="http://www.w3.org/2000/svg" xmlns:xlink="http://www.w3.org/1999/xlink" viewBox="0 0 1536 1536"><defs><style>.cls-1,.cls-3,.cls-6,.cls-7{fill:none;}.cls-2{fill:url(#linear-gradient);}.cls-3,.cls-6,.cls-7{stroke:#1c4256;stroke-miterlimit:10;}.cls-3{stroke-width:48px;}.cls-4{clip-path:url(#clip-path);}.cls-5{fill:#1c4256;}.cls-6{stroke-width:25px;}.cls-7{stroke-width:40px;}</style><linearGradient id="linear-gradient" x1="409.19" y1="142.16" x2="1127.81" y2="1386.84" gradientUnits="userSpaceOnUse"><stop offset="0" stop-color="#86ff69"/><stop offset="0.17" stop-color="#95fc69"/><stop offset="0.51" stop-color="#bcf369"/><stop offset="0.97" stop-color="#fbe669"/><stop offset="0.99" stop-color="#ffe569"/></linearGradient><clipPath id="clip-path"><circle class="cls-1" cx="768.5" cy="764.5" r="718.5"/></clipPath></defs><title>Pairit</title><g id="Parrot_Trace" data-name="Parrot Trace"><circle class="cls-2" cx="768.5" cy="764.5" r="718.5"/><circle class="cls-3" cx="768.5" cy="764.5" r="718.5"/><g class="cls-4"><circle class="cls-5" cx="756.21" cy="538.56" r="34.93"/><path class="cls-6" d="M729.09,961c-11.5-61.59-31.87-193.76-140.19-231.38,0,0-27.18-83.23-86.63-112.11-56.57-27.48-99.56-102-137.07-123.25"/><path class="cls-7" d="M588.36,727.65C486,797.25,404.13,866.85,387.76,940.54"/><path class="cls-6" d="M376.72,491c4.34-9.57,34.61-29.68,61.33-9.64,28.28,21.21,50,87.23,89.08,77s58.3-61.79,100.12-86.62C684.09,438,794.42,437.5,850.48,520.73s47,184.41,8.19,274.87C828.58,865.74,781.38,910.4,734.09,964c-22,24.55-35.59,38.47-80.31,71.68"/><path class="cls-6" d="M729.09,961c-10.54-61.77-31.87-193.76-140.19-231.38"/><path class="cls-7" d="M1503.46,636.12q-10.83-13-22.38-25.38C1359.58,480,1204.25,381.34,1035,325.16,916.22,285.75,784,262.93,658.79,264.55c-108.57,1.41-227.08,24.72-305.33,106-40.32,41.89-35.4,90.36,7.83,126.38C232.19,660,157.45,894.42,422.43,1169.59c0,0-66.24-214-25.48-241.2,0,0,92.09,92,245.45,106.3-24.81,19-43,35-53.51,61.86-18.68,47.56-8.49,127.39-8.49,127.39l71.34,373.69,747.38-127.39L1648.81,981c13.65-26.74-19.82-108.35-28-133.13A641.85,641.85,0,0,0,1503.46,636.12Z"/></g></g></svg>