<svg xmlns="http://www.w3.org/2000/svg" xmlns:xlink="http://www.w3.org/1999/xlink" viewBox="0 0 1536 768"><defs><style>.cls-1,.cls-3{fill:none;}.cls-2{clip-path:url(#clip-path);}.cls-3{stroke:#1c4256;stroke-miterlimit:10;stroke-width:40px;}.cls-4{fill:url(#radial-gradient);}.cls-5{fill:#aae034;}</style><clipPath id="clip-path"><circle class="cls-1" cx="-787.5" cy="380.5" r="718.5"/></clipPath><radialGradient id="radial-gradient" cx="-1245" cy="-121" r="1396" gradientUnits="userSpaceOnUse"><stop offset="0.42" stop-color="#aae860"/><stop offset="0.53" stop-color="#afe861"/><stop offset="0.66" stop-color="#bde762"/><stop offset="0.8" stop-color="#d4e764"/><stop offset="0.95" stop-color="#f3e568"/><stop offset="0.99" stop-color="#ffe569"/></radialGradient></defs><title>Pairit.title</title><g id="Parrot_Trace" data-name="Parrot Trace"><g class="cls-2"><path class="cls-3" d="M-52.54,252.12q-10.83-13-22.38-25.38C-196.42,96-351.75-2.66-521-58.84-639.78-98.25-772-121.07-897.21-119.45c-108.57,1.41-227.08,24.72-305.33,106-40.32,41.89-35.4,90.36,7.83,126.38-129.09,163.06-203.83,397.47,61.15,672.64,0,0-66.24-214-25.48-241.2,0,0,92.09,92,245.45,106.3-24.81,19-43,35-53.51,61.86-18.68,47.56-8.49,127.39-8.49,127.39l71.34,373.69,747.38-127.39L92.81,597c13.65-26.74-19.82-108.35-28-133.13A641.85,641.85,0,0,0-52.54,252.12Z"/></g><g class="cls-2"><circle class="cls-4" cx="-1245" cy="-121" r="1396"/><path class="cls-3" d="M-52.54,252.12q-10.83-13-22.38-25.38C-196.42,96-351.75-2.66-521-58.84-639.78-98.25-772-121.07-897.21-119.45c-108.57,1.41-227.08,24.72-305.33,106-40.32,41.89-35.4,90.36,7.83,126.38-129.09,163.06-203.83,397.47,61.15,672.64,0,0-66.24-214-25.48-241.2,0,0,92.09,92,245.45,106.3-24.81,19-43,35-53.51,61.86-18.68,47.56-8.49,127.39-8.49,127.39l71.34,373.69,747.38-127.39L92.81,597c13.65-26.74-19.82-108.35-28-133.13A641.85,641.85,0,0,0-52.54,252.12Z"/></g></g><g id="Layer_1" data-name="Layer 1"><path class="cls-5" d="M205.42,172.64c97.82,0,156.51,53.1,156.51,133s-58.69,133-156.51,133H182.5V550.5c0,3.91-3.91,7.83-8.94,7.83H73.5a8.42,8.42,0,0,1-7.83-7.83V181c0-4.47,3.91-8.38,7.83-8.38Zm5,166c19.56,0,33-13.42,33-33s-13.42-33-33-33H181.38v66Z"/><path class="cls-5" d="M392.67,285.55c-1.68-3.91-.56-7.83,2.79-10.62,31.86-20.12,76.58-31.86,121.29-31.86,96.7,0,141.42,50.87,141.42,162.1V549.94a8.6,8.6,0,0,1-8.38,8.38H579.36c-4.47,0-8.94-3.91-8.94-8.38l-3.91-15.09c-18.45,19.56-55.34,31.86-96.14,31.86-64.28,0-106.76-41.36-106.2-102.85.56-54.78,43-91.11,106.2-91.11,32.42,0,61.49,11.74,72.67,29.62V378.9c0-24-17.33-39.69-43-39.69-21.8,0-48.63,7.27-67.08,17.89-2.79,1.68-6.15-.56-8.38-4.47ZM543,457.71c-9.5-9.5-19-14-30.74-14-14,0-23.48,7.83-23.48,20.12S498.31,484,512.29,484c11.74,0,21.24-4.47,30.74-14Z"/><path class="cls-5" d="M816.91,185.5c0,33-24.59,55.34-61.49,55.34s-61.49-22.36-61.49-55.34c0-34.66,24.59-57.57,61.49-57.57S816.91,150.84,816.91,185.5Zm-11.74,65.4c4.47,0,8.38,3.91,8.38,7.83V549.94a8.6,8.6,0,0,1-8.38,8.38H706.8a8.6,8.6,0,0,1-8.38-8.38V258.72c0-3.91,3.91-7.83,8.38-7.83Z"/><path class="cls-5" d="M1029.88,250.9a7.64,7.64,0,0,1,7.83,7.83v72.67a7.64,7.64,0,0,1-7.83,7.83h-14.53c-21.24,0-40.25,9.5-47.51,23.48V549.94a8.6,8.6,0,0,1-8.38,8.38H861.07a8.6,8.6,0,0,1-8.38-8.38V259.28c0-3.91,3.91-7.83,8.38-7.83h63.16c4.47,0,7.27,3.91,8.94,8.38l8.38,24.59c16.77-20.68,44.16-33.54,73.78-33.54Z"/><path class="cls-5" d="M1058.94,566.15c-29.62,0-49.19-18.45-49.19-45.83,0-27.95,19.56-47,49.19-47s49.19,19,49.19,47C1108.13,547.7,1088.56,566.15,1058.94,566.15Z"/><path class="cls-5" d="M1259.6,185.5c0,33-24.59,55.34-61.49,55.34s-61.49-22.36-61.49-55.34c0-34.66,24.59-57.57,61.49-57.57S1259.6,150.84,1259.6,185.5Zm-11.74,65.4c4.47,0,8.38,3.91,8.38,7.83V549.94a8.6,8.6,0,0,1-8.38,8.38h-98.38a8.6,8.6,0,0,1-8.38-8.38V258.72c0-3.91,3.91-7.83,8.38-7.83Z"/><path class="cls-5" d="M1477.59,250.9c5,0,8.38,3.35,8.38,7.83l-6.15,54.22c-.56,4.47-3.91,8.38-8.38,8.38h-35.77V549.94a8.6,8.6,0,0,1-8.38,8.38h-98.38a8.6,8.6,0,0,1-8.38-8.38V321.32h-31.86a8,8,0,0,1-7.83-7.83V259.28a8.13,8.13,0,0,1,7.83-8.38h31.86V190c0-3.91,3.91-7.27,8.38-7.83l98.38-9.5c4.47-.56,8.38,3.91,8.38,7.83V250.9Z"/></g></svg>