<svg xmlns="http://www.w3.org/2000/svg" xmlns:xlink="http://www.w3.org/1999/xlink" viewBox="0 0 2185 768"><defs><style>.cls-1,.cls-10,.cls-4,.cls-8,.cls-9{fill:none;}.cls-2{clip-path:url(#clip-path);}.cls-3{fill:url(#radial-gradient);}.cls-10,.cls-4,.cls-8,.cls-9{stroke:#1c4256;stroke-miterlimit:10;}.cls-4{stroke-width:40px;}.cls-5{clip-path:url(#clip-path-3);}.cls-6{fill:url(#radial-gradient-2);}.cls-7{fill:#1c4256;}.cls-8{stroke-width:9.02px;}.cls-9{stroke-width:14.44px;}.cls-10{stroke-width:17.32px;}.cls-11{font-size:574.36px;fill:#aae034;font-family:FatFrank-Heavy, FatFrank;letter-spacing:-0.02em;}.cls-12{letter-spacing:0em;}.cls-13{letter-spacing:-0.09em;}</style><clipPath id="clip-path"><circle class="cls-1" cx="-899.5" cy="-567.5" r="718.5"/></clipPath><radialGradient id="radial-gradient" cx="-1357" cy="-1069" r="1396" gradientUnits="userSpaceOnUse"><stop offset="0.42" stop-color="#aae860"/><stop offset="0.53" stop-color="#afe861"/><stop offset="0.66" stop-color="#bde762"/><stop offset="0.8" stop-color="#d4e764"/><stop offset="0.95" stop-color="#f3e568"/><stop offset="0.99" stop-color="#ffe569"/></radialGradient><clipPath id="clip-path-3"><circle class="cls-1" cx="324.31" cy="384" r="259.31"/></clipPath><radialGradient id="radial-gradient-2" cx="159.2" cy="203.01" r="503.82" xlink:href="#radial-gradient"/></defs><title>Pairit.logotitle</title><g id="Parrot_Trace" data-name="Parrot Trace"><g class="cls-2"><circle class="cls-3" cx="-1357" cy="-1069" r="1396"/><path class="cls-4" d="M-164.54-695.88q-10.83-13-22.38-25.38C-308.42-852-463.75-950.66-633-1006.84c-118.75-39.41-250.94-62.23-376.19-60.6-108.57,1.41-227.08,24.72-305.33,106-40.32,41.89-35.4,90.36,7.83,126.38-129.09,163.06-203.83,397.47,61.15,672.64,0,0-66.24-214-25.48-241.2,0,0,92.09,92,245.45,106.3-24.81,19-43,35-53.51,61.86-18.68,47.56-8.49,127.39-8.49,127.39l71.34,373.69,747.38-127.39L-19.19-351C-5.54-377.7-39-459.31-47.16-484.09A641.85,641.85,0,0,0-164.54-695.88Z"/></g><g class="cls-2"><path class="cls-4" d="M-164.54-695.88q-10.83-13-22.38-25.38C-308.42-852-463.75-950.66-633-1006.84c-118.75-39.41-250.94-62.23-376.19-60.6-108.57,1.41-227.08,24.72-305.33,106-40.32,41.89-35.4,90.36,7.83,126.38-129.09,163.06-203.83,397.47,61.15,672.64,0,0-66.24-214-25.48-241.2,0,0,92.09,92,245.45,106.3-24.81,19-43,35-53.51,61.86-18.68,47.56-8.49,127.39-8.49,127.39l71.34,373.69,747.38-127.39L-19.19-351C-5.54-377.7-39-459.31-47.16-484.09A641.85,641.85,0,0,0-164.54-695.88Z"/></g><g class="cls-5"><circle class="cls-6" cx="159.2" cy="203.01" r="503.82"/><circle class="cls-7" cx="319.87" cy="302.46" r="12.61"/><path class="cls-8" d="M310.09,454.93c-4.15-22.23-11.5-69.93-50.6-83.5,0,0-9.81-30-31.26-40.46-20.42-9.92-35.93-36.81-49.47-44.48"/><path class="cls-9" d="M259.3,370.7c-36.94,25.12-66.49,50.24-72.4,76.83"/><path class="cls-8" d="M182.91,285.29c1.57-3.45,12.49-10.71,22.14-3.48,10.21,7.65,18.05,31.48,32.15,27.81s21-22.3,36.14-31.26C293.84,266.17,333.67,266,353.9,296s17,66.55,3,99.2C346,420.54,329,436.66,311.89,456c-7.94,8.86-12.84,13.88-29,25.87"/><path class="cls-8" d="M310.09,454.93c-3.8-22.29-11.5-69.93-50.6-83.5"/><path class="cls-9" d="M589.56,337.67q-3.91-4.68-8.08-9.16a387.28,387.28,0,0,0-161-103.07c-42.86-14.22-90.57-22.46-135.77-21.87-39.18.51-82,8.92-110.2,38.26-14.55,15.12-12.78,32.61,2.83,45.61-46.59,58.85-73.56,143.45,22.07,242.76,0,0-23.91-77.24-9.2-87.05,0,0,33.23,33.2,88.58,38.37-9,6.84-15.5,12.63-19.31,22.32-6.74,17.16-3.07,46-3.07,46l25.75,134.87,269.73-46L642,462.15c4.93-9.65-7.15-39.11-10.1-48A231.65,231.65,0,0,0,589.56,337.67Z"/></g><circle class="cls-10" cx="324.31" cy="384" r="259.31"/><g class="cls-5"><circle class="cls-7" cx="319.87" cy="302.46" r="12.61"/><path class="cls-8" d="M310.09,454.93c-4.15-22.23-11.5-69.93-50.6-83.5,0,0-9.81-30-31.26-40.46-20.42-9.92-35.93-36.81-49.47-44.48"/><path class="cls-9" d="M259.3,370.7c-36.94,25.12-66.49,50.24-72.4,76.83"/><path class="cls-8" d="M182.91,285.29c1.57-3.45,12.49-10.71,22.14-3.48,10.21,7.65,18.05,31.48,32.15,27.81s21-22.3,36.14-31.26C293.84,266.17,333.67,266,353.9,296s17,66.55,3,99.2C346,420.54,329,436.66,311.89,456c-7.94,8.86-12.84,13.88-29,25.87"/><path class="cls-8" d="M310.09,454.93c-3.8-22.29-11.5-69.93-50.6-83.5"/><path class="cls-9" d="M589.56,337.67q-3.91-4.68-8.08-9.16a387.28,387.28,0,0,0-161-103.07c-42.86-14.22-90.57-22.46-135.77-21.87-39.18.51-82,8.92-110.2,38.26-14.55,15.12-12.78,32.61,2.83,45.61-46.59,58.85-73.56,143.45,22.07,242.76,0,0-23.91-77.24-9.2-87.05,0,0,33.23,33.2,88.58,38.37-9,6.84-15.5,12.63-19.31,22.32-6.74,17.16-3.07,46-3.07,46l25.75,134.87,269.73-46L642,462.15c4.93-9.65-7.15-39.11-10.1-48A231.65,231.65,0,0,0,589.56,337.67Z"/></g></g><g id="Layer_1" data-name="Layer 1"><text class="cls-11" transform="translate(613.32 586.35)">P<tspan class="cls-12" x="315.9" y="0">ai</tspan><tspan class="cls-13" x="808.68" y="0">r</tspan><tspan class="cls-12" x="977.54" y="0">.it</tspan></text></g></svg>